<svg width="2387" height="630" viewBox="0 0 2387 630" fill="none" xmlns="http://www.w3.org/2000/svg">
<path d="M127 270.886L310.224 90L491.058 273.278L307.833 454.164L127 270.886Z" fill="white"/>
<path d="M342.296 441.567L451.946 332.027L550.223 430.46L440.573 540L342.296 441.567Z" fill="#FFCC00"/>
<path d="M466.791 320.17L591.086 196L689.363 294.433L565.068 418.603L466.791 320.17Z" fill="#F9B107"/>
<path d="M446.061 209.285L555.71 99.7452L720 264.296L610.351 373.835L446.061 209.285Z" fill="#F9B107"/>
<path d="M2224.78 288.3V368.7C2224.78 374.3 2226.08 378.4 2228.68 381C2231.48 383.4 2236.08 384.6 2242.48 384.6H2261.98V420H2235.58C2200.18 420 2182.48 402.8 2182.48 368.4V288.3H2162.68V253.8H2182.48V212.7H2224.78V253.8H2261.98V288.3H2224.78Z" fill="#F9B107"/>
<path d="M2148.67 288.3H2119.57V420H2076.97V288.3H2058.07V253.8H2076.97V245.4C2076.97 225 2082.77 210 2094.37 200.4C2105.97 190.8 2123.47 186.3 2146.87 186.9V222.3C2136.67 222.1 2129.57 223.8 2125.57 227.4C2121.57 231 2119.57 237.5 2119.57 246.9V253.8H2148.67V288.3Z" fill="#F9B107"/>
<path d="M1954.96 422.7C1938.96 422.7 1924.56 419.2 1911.76 412.2C1898.96 405 1888.86 394.9 1881.46 381.9C1874.26 368.9 1870.66 353.9 1870.66 336.9C1870.66 319.9 1874.36 304.9 1881.76 291.9C1889.36 278.9 1899.66 268.9 1912.66 261.9C1925.66 254.7 1940.16 251.1 1956.16 251.1C1972.16 251.1 1986.66 254.7 1999.66 261.9C2012.66 268.9 2022.86 278.9 2030.26 291.9C2037.86 304.9 2041.66 319.9 2041.66 336.9C2041.66 353.9 2037.76 368.9 2029.96 381.9C2022.36 394.9 2011.96 405 1998.76 412.2C1985.76 419.2 1971.16 422.7 1954.96 422.7ZM1954.96 386.1C1962.56 386.1 1969.66 384.3 1976.26 380.7C1983.06 376.9 1988.46 371.3 1992.46 363.9C1996.46 356.5 1998.46 347.5 1998.46 336.9C1998.46 321.1 1994.26 309 1985.86 300.6C1977.66 292 1967.56 287.7 1955.56 287.7C1943.56 287.7 1933.46 292 1925.26 300.6C1917.26 309 1913.26 321.1 1913.26 336.9C1913.26 352.7 1917.16 364.9 1924.96 373.5C1932.96 381.9 1942.96 386.1 1954.96 386.1Z" fill="#F9B107"/>
<path d="M1770.64 422.1C1756.04 422.1 1742.84 419.6 1731.04 414.6C1719.44 409.6 1710.24 402.4 1703.44 393C1696.64 383.6 1693.14 372.5 1692.94 359.7H1737.94C1738.54 368.3 1741.54 375.1 1746.94 380.1C1752.54 385.1 1760.14 387.6 1769.74 387.6C1779.54 387.6 1787.24 385.3 1792.84 380.7C1798.44 375.9 1801.24 369.7 1801.24 362.1C1801.24 355.9 1799.34 350.8 1795.54 346.8C1791.74 342.8 1786.94 339.7 1781.14 337.5C1775.54 335.1 1767.74 332.5 1757.74 329.7C1744.14 325.7 1733.04 321.8 1724.44 318C1716.04 314 1708.74 308.1 1702.54 300.3C1696.54 292.3 1693.54 281.7 1693.54 268.5C1693.54 256.1 1696.64 245.3 1702.84 236.1C1709.04 226.9 1717.74 219.9 1728.94 215.1C1740.14 210.1 1752.94 207.6 1767.34 207.6C1788.94 207.6 1806.44 212.9 1819.84 223.5C1833.44 233.9 1840.94 248.5 1842.34 267.3H1796.14C1795.74 260.1 1792.64 254.2 1786.84 249.6C1781.24 244.8 1773.74 242.4 1764.34 242.4C1756.14 242.4 1749.54 244.5 1744.54 248.7C1739.74 252.9 1737.34 259 1737.34 267C1737.34 272.6 1739.14 277.3 1742.74 281.1C1746.54 284.7 1751.14 287.7 1756.54 290.1C1762.14 292.3 1769.94 294.9 1779.94 297.9C1793.54 301.9 1804.64 305.9 1813.24 309.9C1821.84 313.9 1829.24 319.9 1835.44 327.9C1841.64 335.9 1844.74 346.4 1844.74 359.4C1844.74 370.6 1841.84 381 1836.04 390.6C1830.24 400.2 1821.74 407.9 1810.54 413.7C1799.34 419.3 1786.04 422.1 1770.64 422.1Z" fill="#F9B107"/>
<path d="M1484.22 336.3C1484.22 319.5 1487.52 304.6 1494.12 291.6C1500.92 278.6 1510.02 268.6 1521.42 261.6C1533.02 254.6 1545.92 251.1 1560.12 251.1C1572.52 251.1 1583.32 253.6 1592.52 258.6C1601.92 263.6 1609.42 269.9 1615.02 277.5V253.8H1657.32V420H1615.02V395.7C1609.62 403.5 1602.12 410 1592.52 415.2C1583.12 420.2 1572.22 422.7 1559.82 422.7C1545.82 422.7 1533.02 419.1 1521.42 411.9C1510.02 404.7 1500.92 394.6 1494.12 381.6C1487.52 368.4 1484.22 353.3 1484.22 336.3ZM1615.02 336.9C1615.02 326.7 1613.02 318 1609.02 310.8C1605.02 303.4 1599.62 297.8 1592.82 294C1586.02 290 1578.72 288 1570.92 288C1563.12 288 1555.92 289.9 1549.32 293.7C1542.72 297.5 1537.32 303.1 1533.12 310.5C1529.12 317.7 1527.12 326.3 1527.12 336.3C1527.12 346.3 1529.12 355.1 1533.12 362.7C1537.32 370.1 1542.72 375.8 1549.32 379.8C1556.12 383.8 1563.32 385.8 1570.92 385.8C1578.72 385.8 1586.02 383.9 1592.82 380.1C1599.62 376.1 1605.02 370.5 1609.02 363.3C1613.02 355.9 1615.02 347.1 1615.02 336.9Z" fill="white"/>
<path d="M1427.62 288.3V368.7C1427.62 374.3 1428.92 378.4 1431.52 381C1434.32 383.4 1438.92 384.6 1445.32 384.6H1464.82V420H1438.42C1403.02 420 1385.32 402.8 1385.32 368.4V288.3H1365.52V253.8H1385.32V212.7H1427.62V253.8H1464.82V288.3H1427.62Z" fill="white"/>
<path d="M1272.48 251.4C1292.28 251.4 1308.28 257.7 1320.48 270.3C1332.68 282.7 1338.78 300.1 1338.78 322.5V420H1296.78V328.2C1296.78 315 1293.48 304.9 1286.88 297.9C1280.28 290.7 1271.28 287.1 1259.88 287.1C1248.28 287.1 1239.08 290.7 1232.28 297.9C1225.68 304.9 1222.38 315 1222.38 328.2V420H1180.38V253.8H1222.38V274.5C1227.98 267.3 1235.08 261.7 1243.68 257.7C1252.48 253.5 1262.08 251.4 1272.48 251.4Z" fill="white"/>
<path d="M1149.72 333.3C1149.72 339.3 1149.32 344.7 1148.52 349.5H1027.02C1028.02 361.5 1032.22 370.9 1039.62 377.7C1047.02 384.5 1056.12 387.9 1066.92 387.9C1082.52 387.9 1093.62 381.2 1100.22 367.8H1145.52C1140.72 383.8 1131.52 397 1117.92 407.4C1104.32 417.6 1087.62 422.7 1067.82 422.7C1051.82 422.7 1037.42 419.2 1024.62 412.2C1012.02 405 1002.12 394.9 994.92 381.9C987.92 368.9 984.42 353.9 984.42 336.9C984.42 319.7 987.92 304.6 994.92 291.6C1001.92 278.6 1011.72 268.6 1024.32 261.6C1036.92 254.6 1051.42 251.1 1067.82 251.1C1083.62 251.1 1097.72 254.5 1110.12 261.3C1122.72 268.1 1132.42 277.8 1139.22 290.4C1146.22 302.8 1149.72 317.1 1149.72 333.3ZM1106.22 321.3C1106.02 310.5 1102.12 301.9 1094.52 295.5C1086.92 288.9 1077.62 285.6 1066.62 285.6C1056.22 285.6 1047.42 288.8 1040.22 295.2C1033.22 301.4 1028.92 310.1 1027.32 321.3H1106.22Z" fill="white"/>
<path d="M965.4 275.4C965.4 286.6 962.7 297.1 957.3 306.9C952.1 316.7 943.8 324.6 932.4 330.6C921.2 336.6 907 339.6 889.8 339.6H854.7V420H812.7V210.6H889.8C906 210.6 919.8 213.4 931.2 219C942.6 224.6 951.1 232.3 956.7 242.1C962.5 251.9 965.4 263 965.4 275.4ZM888 305.7C899.6 305.7 908.2 303.1 913.8 297.9C919.4 292.5 922.2 285 922.2 275.4C922.2 255 910.8 244.8 888 244.8H854.7V305.7H888Z" fill="white"/>
</svg>
